<?xml version="1.0" encoding="UTF-8"?>
<svg xmlns="http://www.w3.org/2000/svg" xmlns:xlink="http://www.w3.org/1999/xlink" width="32px" height="32px" viewBox="0 0 32 32" version="1.1">
<g id="surface1">
<path style=" stroke:none;fill-rule:nonzero;fill:rgb(48.235294%,84.705883%,45.09804%);fill-opacity:1;" d="M 31.671875 18.164062 C 21.644531 18.464844 17.808594 27.914062 7.785156 28.214844 C 7.542969 28.222656 7.261719 28.101562 7.160156 27.953125 L 0.0078125 17.382812 C -0.09375 17.234375 0.0234375 17.113281 0.265625 17.105469 C 10.292969 16.800781 14.128906 7.355469 24.152344 7.050781 C 24.394531 7.042969 24.675781 7.167969 24.777344 7.316406 L 31.929688 17.882812 C 32.03125 18.035156 31.914062 18.15625 31.671875 18.164062 Z M 31.671875 18.164062 "/>
<path style=" stroke:none;fill-rule:nonzero;fill:rgb(34.901962%,48.235294%,56.862748%);fill-opacity:1;" d="M 7.84375 18.671875 C 8.410156 18.535156 8.929688 18.503906 9.433594 18.5625 C 9.578125 18.582031 9.671875 18.695312 9.640625 18.816406 C 9.59375 19.023438 9.542969 19.230469 9.492188 19.433594 C 9.464844 19.546875 9.335938 19.625 9.195312 19.613281 C 8.652344 19.570312 8.171875 19.636719 7.6875 19.816406 C 7.128906 20.023438 6.882812 20.308594 7.101562 20.628906 C 7.320312 20.953125 7.695312 21.03125 8.917969 20.875 C 10.40625 20.671875 11.351562 20.691406 12.003906 21.65625 C 12.511719 22.410156 12.339844 23.324219 11.425781 23.996094 C 11.335938 24.0625 11.3125 24.167969 11.371094 24.253906 L 11.980469 25.152344 C 12.050781 25.257812 12 25.386719 11.863281 25.441406 C 11.636719 25.53125 11.40625 25.613281 11.171875 25.691406 C 11.035156 25.742188 10.863281 25.691406 10.792969 25.589844 L 10.226562 24.753906 C 10.164062 24.660156 10.015625 24.609375 9.882812 24.636719 C 9.023438 24.804688 8.207031 24.71875 7.503906 24.515625 C 7.335938 24.464844 7.195312 24.425781 7.25 24.328125 C 7.363281 24.121094 7.476562 23.90625 7.585938 23.6875 C 7.660156 23.542969 7.769531 23.582031 7.921875 23.617188 C 8.578125 23.765625 9.207031 23.769531 9.808594 23.5625 C 10.484375 23.324219 10.710938 22.914062 10.449219 22.523438 C 10.1875 22.140625 9.847656 22.09375 8.683594 22.207031 C 6.847656 22.355469 5.863281 21.910156 5.351562 21.15625 C 4.839844 20.398438 5.285156 19.75 6.257812 19.242188 C 6.363281 19.191406 6.457031 19.183594 6.398438 19.097656 L 5.714844 18.082031 C 5.644531 17.980469 5.773438 17.964844 5.910156 17.917969 C 6.144531 17.835938 6.375 17.753906 6.601562 17.664062 C 6.738281 17.609375 6.90625 17.648438 6.976562 17.753906 L 7.527344 18.570312 C 7.585938 18.65625 7.71875 18.703125 7.84375 18.671875 Z M 7.84375 18.671875 "/>
<path style=" stroke:none;fill-rule:nonzero;fill:rgb(34.901962%,48.235294%,56.862748%);fill-opacity:1;" d="M 22.164062 22.007812 C 20.703125 22.972656 19.300781 24.019531 17.84375 24.988281 C 17.503906 25.214844 17.0625 25.148438 16.859375 24.847656 L 9.566406 14.070312 C 9.363281 13.769531 9.476562 13.347656 9.816406 13.121094 C 11.273438 12.15625 12.675781 11.109375 14.132812 10.144531 C 14.476562 9.917969 14.917969 9.984375 15.121094 10.285156 L 22.414062 21.066406 C 22.617188 21.363281 22.503906 21.785156 22.164062 22.007812 Z M 22.164062 22.007812 "/>
<path style=" stroke:none;fill-rule:nonzero;fill:rgb(76.862746%,94.117647%,94.901961%);fill-opacity:1;" d="M 26.839844 22.527344 C 30.09375 25.777344 29.816406 27.941406 28.292969 29.484375 C 26.753906 31.046875 24.503906 31.316406 23.28125 30.09375 C 22.441406 29.25 22.308594 27.921875 22.816406 26.671875 C 22.917969 26.429688 22.75 26.222656 22.503906 26.285156 C 21.679688 26.496094 20.859375 26.34375 20.308594 25.792969 C 19.6875 25.171875 19.574219 24.203125 19.917969 23.277344 C 20.007812 23.039062 19.84375 22.839844 19.601562 22.902344 C 18.890625 23.085938 18.183594 22.9375 17.738281 22.421875 C 17.097656 21.679688 15.121094 19.984375 15.964844 19.078125 C 16.574219 18.421875 23.375 19.0625 26.839844 22.527344 Z M 15.25 5.546875 C 13.441406 1.316406 11.332031 0.769531 9.332031 1.605469 C 7.3125 2.453125 6.222656 4.4375 6.902344 6.027344 C 7.371094 7.125 8.554688 7.742188 9.90625 7.734375 C 10.167969 7.734375 10.296875 7.964844 10.144531 8.171875 C 9.644531 8.855469 9.480469 9.675781 9.785156 10.390625 C 10.128906 11.199219 10.988281 11.664062 11.972656 11.6875 C 12.230469 11.695312 12.351562 11.921875 12.203125 12.125 C 11.769531 12.714844 11.644531 13.429688 11.957031 14.03125 C 12.40625 14.902344 13.242188 17.367188 14.398438 16.921875 C 15.234375 16.601562 17.175781 10.050781 15.25 5.546875 Z M 15.25 5.546875 "/>
</g>
</svg>
